<?xml version="1.0" standalone="no"?>
<!DOCTYPE svg PUBLIC "-//W3C//DTD SVG 20010904//EN"
 "http://www.w3.org/TR/2001/REC-SVG-20010904/DTD/svg10.dtd">
<svg version="1.0" xmlns="http://www.w3.org/2000/svg"
 width="468.000000pt" height="468.000000pt" viewBox="0 0 468.000000 468.000000"
 preserveAspectRatio="xMidYMid meet">
<metadata>
Created by potrace 1.11, written by Peter Selinger 2001-2013
</metadata>
<g transform="translate(0.000000,468.000000) scale(0.100000,-0.100000)"
fill="#000000" stroke="none">
<path d="M2494 4655 c-17 -26 -59 -144 -68 -191 -3 -16 -12 -72 -21 -124 -29
-175 -90 -379 -123 -412 -12 -13 -41 -24 -69 -29 -124 -18 -243 -57 -349 -114
-104 -55 -146 -87 -236 -182 -60 -63 -84 -99 -143 -213 -62 -122 -105 -239
-105 -286 0 -22 -10 -43 -32 -66 -26 -29 -32 -44 -35 -96 -6 -89 24 -150 110
-226 37 -32 67 -62 67 -67 0 -5 11 -27 25 -49 13 -21 27 -54 30 -72 3 -18 10
-46 15 -63 18 -61 30 -247 32 -500 0 -143 4 -273 8 -290 4 -16 3 -43 -1 -59
-5 -17 -5 -35 0 -40 11 -15 29 -83 36 -136 3 -25 12 -81 20 -125 8 -44 17
-103 20 -130 3 -27 10 -64 16 -83 7 -22 9 -60 4 -105 -10 -92 -7 -139 10 -207
7 -30 13 -80 13 -110 0 -73 9 -157 26 -230 8 -33 14 -63 15 -65 1 -22 14 -109
22 -145 7 -30 17 -49 32 -56 119 -61 163 -78 246 -95 53 -12 111 -18 130 -15
31 5 32 4 17 -13 -9 -10 -16 -24 -15 -32 0 -8 5 -5 11 8 13 26 44 31 273 37
99 2 191 11 240 21 44 10 85 18 90 19 39 7 197 102 218 130 4 6 7 61 6 123 -1
61 1 116 4 120 3 5 7 29 8 52 2 23 7 45 11 47 4 3 8 0 8 -7 0 -35 24 34 36
101 13 75 20 199 18 310 -2 87 1 127 9 132 9 6 9 8 -1 8 -10 0 -9 4 3 16 15
15 15 18 -3 38 -29 32 -34 64 -12 86 16 16 17 19 2 34 -15 14 -14 24 8 113 16
70 24 136 27 233 2 74 6 158 8 185 2 28 8 143 11 257 5 156 4 211 -5 222 -10
11 -9 16 2 23 11 6 16 43 20 153 8 190 19 246 54 273 65 50 116 104 134 140
l20 38 -47 77 c-25 42 -58 97 -71 122 -14 25 -29 49 -34 55 -5 5 -9 17 -9 27
0 10 -9 44 -21 76 -11 31 -22 71 -23 89 -1 18 -10 41 -19 51 -9 10 -14 22 -10
26 4 4 -3 9 -15 13 -13 3 -30 19 -38 35 -8 16 -19 26 -23 23 -5 -2 -14 9 -21
25 -7 16 -16 28 -20 25 -4 -3 -19 4 -32 15 -14 11 -29 16 -33 12 -5 -4 -5 -1
-1 6 5 8 -11 30 -44 62 -88 85 -247 170 -335 180 l-50 5 2 65 c1 36 11 103 23
150 12 47 28 112 36 145 8 33 16 67 18 75 3 8 10 38 16 65 7 28 19 70 28 95 9
25 19 65 23 90 6 39 4 48 -17 67 -19 17 -135 63 -160 63 -2 0 -11 -11 -20 -25z
m556 -1095 c0 -5 -2 -10 -4 -10 -3 0 -8 5 -11 10 -3 6 -1 10 4 10 6 0 11 -4
11 -10z m160 -331 c0 -6 -4 -7 -10 -4 -5 3 -10 11 -10 16 0 6 5 7 10 4 6 -3
10 -11 10 -16z m-137 -2573 c-14 -19 -19 -21 -21 -9 -2 9 2 19 10 24 24 16 29
9 11 -15z"/>
</g>
</svg>
